<mxfile host="app.diagrams.net" agent="Mozilla/5.0 (Windows NT 10.0; Win64; x64) AppleWebKit/537.36 (KHTML, like Gecko) Chrome/138.0.0.0 Safari/537.36" version="28.0.7">
  <diagram name="Despliegue" id="ktn5c4MfVXvSpk6oqeaj">
    <mxGraphModel dx="1482" dy="376" grid="1" gridSize="10" guides="1" tooltips="1" connect="1" arrows="1" fold="1" page="1" pageScale="1" pageWidth="827" pageHeight="1169" math="0" shadow="0">
      <root>
        <mxCell id="0" />
        <mxCell id="1" parent="0" />
        <mxCell id="2" value="&amp;lt;Node&amp;gt;&lt;br&gt;Navegador Web&lt;div&gt;&lt;br&gt;&lt;/div&gt;&lt;div&gt;&amp;lt;Artifact&amp;gt;&lt;br&gt;&lt;i&gt;&lt;span style=&quot;white-space: pre;&quot;&gt;&#x9;&lt;/span&gt;HTML, CSS, JavaScript&lt;/i&gt;&lt;/div&gt;" style="shape=cube;whiteSpace=wrap;html=1;" parent="1" vertex="1">
          <mxGeometry x="30" y="60" width="160" height="120" as="geometry" />
        </mxCell>
        <mxCell id="3" value="&amp;lt;Artifact&amp;gt;&lt;br&gt;Servidor Web/API&lt;div&gt;&lt;br&gt;&lt;/div&gt;&lt;div&gt;&amp;lt;Artifact&amp;gt;&lt;br&gt;&lt;i&gt;app.jar&lt;/i&gt;&lt;/div&gt;" style="shape=cube;whiteSpace=wrap;html=1;" parent="1" vertex="1">
          <mxGeometry x="300" y="60" width="160" height="120" as="geometry" />
        </mxCell>
        <mxCell id="4" value="&amp;lt;Node&amp;gt;&lt;br&gt;Servidor de Base de Datos&lt;div&gt;&lt;br&gt;&lt;/div&gt;&lt;div&gt;&amp;lt;Artifact&amp;gt;&lt;/div&gt;&lt;div&gt;&lt;i&gt;MySQL&lt;/i&gt;&lt;/div&gt;" style="shape=cube;whiteSpace=wrap;html=1;" parent="1" vertex="1">
          <mxGeometry x="300" y="220" width="160" height="120" as="geometry" />
        </mxCell>
        <mxCell id="5" style="endArrow=block;html=1;" parent="1" source="2" target="3" edge="1">
          <mxGeometry relative="1" as="geometry" />
        </mxCell>
        <mxCell id="6" value="HTTP/HTTPS" style="text;html=1;strokeColor=none;fillColor=none;align=center;verticalAlign=middle;" parent="1" vertex="1">
          <mxGeometry x="-10" y="10" width="60" height="20" as="geometry">
            <mxPoint x="230" y="90" as="offset" />
          </mxGeometry>
        </mxCell>
        <mxCell id="7" style="endArrow=block;html=1;" parent="1" source="3" target="4" edge="1">
          <mxGeometry relative="1" as="geometry" />
        </mxCell>
        <mxCell id="8" value="JDBC" style="text;html=1;strokeColor=none;fillColor=none;align=center;verticalAlign=middle;" parent="1" vertex="1">
          <mxGeometry x="-10" y="40" width="60" height="20" as="geometry">
            <mxPoint x="380" y="150" as="offset" />
          </mxGeometry>
        </mxCell>
      </root>
    </mxGraphModel>
  </diagram>
</mxfile>
